<svg width="288" height="420" viewBox="0 0 288 420" fill="none" xmlns="http://www.w3.org/2000/svg">
<mask id="mask0_34_904" style="mask-type:alpha" maskUnits="userSpaceOnUse" x="0" y="0" width="288" height="420">
<rect width="288" height="420" fill="rgba(229, 228, 242, 0.1)"/>
</mask>
<g mask="url(#mask0_34_904)">
<path d="M264.084 -1.28719V51.3752L216.807 76.5616M264.084 -1.28719L216.807 24.6624M264.084 -1.28719L216.807 -28L168.742 -1.2872M216.807 76.5616V24.6624M216.807 76.5616L168.742 51.3752V-1.2872M216.807 24.6624L168.742 -1.2872M191.593 35.3476L191.593 88.01L144.315 113.196M191.593 35.3476L144.315 61.2971M191.593 35.3476L144.315 8.63477L96.2501 35.3476M144.315 113.196V61.2971M144.315 113.196L96.2501 88.0099V35.3476M144.315 61.2971L96.2501 35.3476M191.592 -55.2873L191.592 -2.62493L144.315 22.5614M191.592 -55.2873L144.315 -29.3377M191.592 -55.2873L144.315 -82.0001L96.25 -55.2873M144.315 22.5614V-29.3377M144.315 22.5614L96.25 -2.62493V-55.2873M144.315 -29.3377L96.25 -55.2873M191.593 110.143L191.593 162.806L144.315 187.992M191.593 110.143L144.315 136.093M191.593 110.143L144.315 83.4307L96.2501 110.143M144.315 187.992V136.093M144.315 187.992L96.2501 162.806V110.143M144.315 136.093L96.2501 110.143M264.084 148.305V200.967L216.807 226.153M264.084 148.305L216.807 174.254M264.084 148.305L216.807 121.592L168.742 148.305M216.807 226.153V174.254M216.807 226.153L168.742 200.967V148.305M216.807 226.153L264.084 252.866M216.807 226.153L168.742 252.866M216.807 174.254L168.742 148.305M335 113.196V165.859L287.723 191.045M335 113.196L287.723 139.146M335 113.196L287.723 86.4834L239.658 113.196M287.723 191.045V139.146M287.723 191.045L239.658 165.859V113.196M287.723 139.146L239.658 113.196M335 36.1108V88.7731L287.723 113.96M335 36.1108L287.723 62.0603M335 36.1108L287.723 9.39795L239.658 36.1107M287.723 113.96V62.0603M287.723 113.96L239.658 88.7731V36.1107M287.723 62.0603L239.658 36.1107M335 -51.2873V1.37507L287.723 26.5614M335 -51.2873L287.723 -25.3377M335 -51.2873L287.723 -78.0001L239.658 -51.2873M287.723 26.5614V-25.3377M287.723 26.5614L239.658 1.37507V-51.2873M287.723 -25.3377L239.658 -51.2873M120.834 -1.28719L120.834 51.3752L73.5569 76.5616M120.834 -1.28719L73.5569 24.6624M120.834 -1.28719L73.5569 -28L25.4918 -1.2872M73.5569 76.5616V24.6624M73.5569 76.5616L25.4918 51.3752V-1.2872M73.5569 24.6624L25.4918 -1.2872M264.084 419.713V472.375L216.807 497.562M264.084 419.713L216.807 445.663M264.084 419.713L216.807 393L168.742 419.713M216.807 497.562V445.663M216.807 497.562L168.742 472.375V419.713M216.807 445.663L168.742 419.713M120.834 419.713L120.834 472.375L73.5569 497.562M120.834 419.713L73.5569 445.663M120.834 419.713L73.5569 393L25.4917 419.713M73.5569 497.562V445.663M73.5569 497.562L25.4917 472.375V419.713M73.5569 445.663L25.4917 419.713M48.3425 113.143V165.806L1.06531 190.992M48.3425 113.143L1.06531 139.093M48.3425 113.143L1.06531 86.4305L-46.9999 113.143M1.06531 190.992V139.093M1.06531 190.992L-46.9999 165.806L-46.9999 113.143M1.06531 139.093L-46.9999 113.143M48.3425 36.7127V89.3751L1.06531 114.561M48.3425 36.7127L1.06531 62.6623M48.3425 36.7127L1.06531 9.99988L-46.9999 36.7127M1.06531 114.561V62.6623M1.06531 114.561L-46.9999 89.3751L-46.9999 36.7127M1.06531 62.6623L-46.9999 36.7127M48.3425 -51.2873V1.37507L1.06531 26.5614M48.3425 -51.2873L1.06531 -25.3377M48.3425 -51.2873L1.06531 -78.0001L-46.9999 -51.2873M1.06531 26.5614V-25.3377M1.06531 26.5614L-46.9999 1.37507L-46.9999 -51.2873M1.06531 -25.3377L-46.9999 -51.2873M120.834 148.305L120.834 200.967L73.5569 226.153M120.834 148.305L73.5569 174.254M120.834 148.305L73.5569 121.592L25.4918 148.305M73.5569 226.153V174.254M73.5569 226.153L25.4918 200.967V148.305M73.5569 226.153L120.834 252.866M73.5569 226.153L25.4918 252.866M73.5569 174.254L25.4918 148.305M264.084 252.866V305.529L216.807 330.715M264.084 252.866L216.807 278.816M216.807 330.715V278.816M216.807 330.715L168.742 305.529V252.866M216.807 278.816L168.742 252.866M191.593 289.501L191.593 342.163L144.315 367.35M191.593 289.501L144.315 315.451M191.593 289.501L144.315 262.788L96.2501 289.501M144.315 367.35V315.451M144.315 367.35L96.2501 342.163V289.501M144.315 315.451L96.2501 289.501M191.593 364.297L191.593 416.959L144.315 442.145M191.593 364.297L144.315 390.246M191.593 364.297L144.315 337.584L96.2501 364.297M144.315 442.145V390.246M144.315 442.145L96.2501 416.959V364.297M144.315 390.246L96.2501 364.297M335 367.35V420.012L287.723 445.198M335 367.35L287.723 393.299M335 367.35L287.723 340.637L239.658 367.35M287.723 445.198V393.299M287.723 445.198L239.658 420.012V367.35M287.723 393.299L239.658 367.35M335 290.264V342.927L287.723 368.113M335 290.264L287.723 316.214M335 290.264L287.723 263.551L239.658 290.264M287.723 368.113V316.214M287.723 368.113L239.658 342.927V290.264M287.723 316.214L239.658 290.264M120.834 252.866L120.834 305.529L73.5569 330.715M120.834 252.866L73.5569 278.816M73.5569 330.715V278.816M73.5569 330.715L25.4918 305.529V252.866M73.5569 278.816L25.4918 252.866M48.3425 290.501V343.163L1.06531 368.35M48.3425 290.501L1.06531 316.451M48.3425 290.501L1.06531 263.788L-46.9999 290.501M1.06531 368.35V316.451M1.06531 368.35L-46.9999 343.163L-46.9999 290.501M1.06531 316.451L-46.9999 290.501M191.593 202.036L191.593 254.698L144.315 279.884M191.593 202.036L144.315 227.985M191.593 202.036L144.315 175.323L96.2501 202.036M144.315 279.884V227.985M144.315 279.884L96.2501 254.698V202.036M144.315 227.985L96.2501 202.036M335 202.799V255.461L287.723 280.647M335 202.799L287.723 228.748M335 202.799L287.723 176.086L239.658 202.799M287.723 280.647V228.748M287.723 280.647L239.658 255.461V202.799M287.723 228.748L239.658 202.799M48.3425 203.035V255.698L1.06531 280.884M48.3425 203.035L1.06531 228.985M48.3425 203.035L1.06531 176.323L-46.9999 203.035M1.06531 280.884V228.985M1.06531 280.884L-46.9999 255.698L-46.9999 203.035M1.06531 228.985L-46.9999 203.035M48.3425 367.297V419.959L1.06531 445.145M48.3425 367.297L1.06531 393.246M48.3425 367.297L1.06531 340.584L-46.9999 367.297M1.06531 445.145V393.246M1.06531 445.145L-46.9999 419.959L-46.9999 367.297M1.06531 393.246L-46.9999 367.297" stroke="black" stroke-opacity="0.25" stroke-width="2.5" stroke-linejoin="round"/>
</g>
</svg>
