<svg width="288" height="420" viewBox="0 0 288 420" fill="none" xmlns="http://www.w3.org/2000/svg">
<path fill-rule="evenodd" clip-rule="evenodd" d="M98.5662 0H49.5925V1.37507C49.5925 1.83691 49.3379 2.26113 48.9302 2.47828L41.9678 6.18742L73.552 23.2392L107.43 4.64443L98.5662 0ZM30.5072 0H47.0925V0.62468L39.327 4.76167L30.5072 0ZM2.3153 0H24.2417V12.7981L16.1696 17.0985L2.3153 9.27042V0ZM0 60.6666V27.4144L0.485119 27.6686C0.851147 27.8604 1.28831 27.8589 1.65302 27.6646L16.1342 19.9499L24.2417 24.5309V48.5152L1.06034 61.2391L0 60.6666ZM0 137.097V115.414L0.485119 115.669C0.851147 115.86 1.28831 115.859 1.65302 115.665L26.6733 102.335L45.7735 113.128L1.06034 137.67L0 137.097ZM0 226.989V191.845L0.485119 192.099C0.851147 192.291 1.28831 192.29 1.65302 192.095L14.4107 185.299L24.2417 190.854V200.967C24.2417 201.432 24.4998 201.858 24.9116 202.074L36.4656 208.129L1.06036 227.562L0 226.989ZM0 314.455V281.737L0.485119 281.991C0.851147 282.183 1.28831 282.182 1.65302 281.987L16.6211 274.013L24.2417 278.319V302.304L1.06036 315.027L0 314.455ZM0 391.251V369.203L0.485119 369.457C0.851147 369.649 1.28831 369.647 1.65302 369.453L26.3408 356.301L45.7735 367.281L1.06036 391.823L0 391.251ZM24.2417 420H2.3153V393.986L47.0925 369.409V406.278L24.8845 418.62C24.4877 418.841 24.2417 419.259 24.2417 419.713V420ZM45.6071 420H28.6546L28.0934 419.697L47.0925 409.138V419.209L45.6071 420ZM99.3603 420H49.5919C49.5923 419.986 49.5925 419.973 49.5925 419.959V407.749L73.5518 394.433L95.0001 406.552V416.959C95.0001 417.424 95.2581 417.85 95.6699 418.066L99.3603 420ZM117.713 420H104.747L97.5001 416.203V407.964L118.265 419.697L117.713 420ZM143.065 420H122.084V419.713C122.084 419.262 121.841 418.846 121.449 418.625L97.5001 405.093V366.392L143.065 390.992V420ZM167.492 420H145.565V390.986L190.343 366.409L190.343 406.278L168.135 418.62C167.738 418.841 167.492 419.259 167.492 419.713V420ZM183.226 420H171.905L171.344 419.697L190.343 409.138V416.209L183.226 420ZM238.408 420H188.543L192.18 418.062C192.588 417.845 192.843 417.421 192.843 416.959V407.749L216.802 394.433L238.408 406.641V420ZM260.963 420H242.328L240.908 419.256V408.053L261.515 419.697L260.963 420ZM286.473 420H265.334V419.713C265.334 419.262 265.092 418.846 264.699 418.625L240.908 405.182V369.445L286.473 394.045V420ZM288 369.332V391.721L287.718 391.876L242.259 367.334L262.294 356.199L287.143 369.22C287.409 369.36 287.713 369.397 288 369.332ZM288 281.866V314.636L287.718 314.791L265.334 302.706V277.424L271.907 273.771L287.143 281.755C287.409 281.894 287.713 281.932 288 281.866ZM288 192.264V227.17L287.718 227.325L252.727 208.434L264.672 202.07C265.079 201.853 265.334 201.429 265.334 200.967V189.959L273.886 185.206L287.143 192.152C287.409 192.292 287.713 192.329 288 192.264ZM288 115.178V137.568L287.718 137.723L242.259 113.18L262.294 102.046L287.143 115.067C287.409 115.206 287.713 115.244 288 115.178ZM288 27.7803V60.4823L287.718 60.6371L265.334 48.5526V23.2708L271.845 19.6525L287.143 27.6686C287.409 27.8083 287.713 27.8455 288 27.7803ZM265.334 0H286.473V8.66257L271.81 16.8117L265.334 13.4185V0ZM240.908 0H259.141L249.659 5.20461L240.908 0.618858V0ZM189.324 0H238.408V1.37507C238.408 1.83998 238.666 2.26649 239.078 2.48227L247.028 6.64854L216.802 23.2392L181.489 4.17403L189.324 0ZM173.757 0H184.007L178.848 2.74828L173.757 0ZM145.565 0H167.492V8.79801L157.019 14.3771L145.565 7.90524V0ZM122.084 0H143.065V7.89947L131.4 14.3826L122.084 9.50107V0ZM103.953 0H115.891L110.06 3.20049L103.953 0ZM74.8069 25.4022L110.088 6.03728L119.584 11.0135V20.9493L95.6429 34.255C95.2461 34.4755 95.0001 34.8937 95.0001 35.3476V63.7216L74.8069 74.4793V25.4022ZM112.718 4.59334L119.584 8.19106V0.824821L112.718 4.59334ZM122.084 19.5599V12.3235L128.786 15.8353L122.084 19.5599ZM122.084 22.4201L131.435 17.2233L143.735 23.6686C144.101 23.8604 144.538 23.8589 144.903 23.6646L156.984 17.2286L167.492 23.1658V47.1501L144.31 59.8739L122.084 47.8744L122.084 22.4201ZM167.492 20.2944L159.6 15.8351L167.492 11.6306V20.2944ZM169.992 21.7069V10.2988L178.84 5.58511L215.557 25.4081V74.4953L192.843 62.5928L192.843 35.3476C192.843 34.8968 192.6 34.481 192.207 34.2593L169.992 21.7069ZM169.992 7.46617L176.199 4.15936L169.992 0.808197V7.46617ZM252.317 6.59747L262.834 0.824829V12.1085L252.317 6.59747ZM249.686 8.0414L262.834 14.9309V21.8L239.05 35.0182C238.654 35.2386 238.408 35.6569 238.408 36.1107V63.6378L218.057 74.4793V25.4022L249.686 8.0414ZM265.334 16.2409V20.4106L269.196 18.2644L265.334 16.2409ZM242.259 36.0949L262.834 24.6602V47.2029L242.259 36.0949ZM240.908 38.2061L262.834 50.0439V50.6248L240.908 62.3059V38.2061ZM264.672 52.4784L240.908 65.1385V88.0169L262.259 99.2051L286.473 85.748V62.806L265.334 51.3936C265.328 51.8483 265.074 52.2641 264.672 52.4784ZM217.395 77.6648L238.408 66.4704V88.7731C238.408 89.2381 238.666 89.6646 239.078 89.8803L259.645 100.658L239.05 112.104C238.654 112.324 238.408 112.742 238.408 113.196V132.361L217.422 120.504C217.043 120.289 216.58 120.288 216.2 120.499L192.843 133.48V110.143C192.843 109.693 192.6 109.277 192.207 109.055L174.028 98.7835L192.18 89.1132C192.588 88.896 192.843 88.4718 192.843 88.01V65.4153L216.227 77.6688C216.593 77.8605 217.03 77.8591 217.395 77.6648ZM264.908 100.593L286.473 88.6082V111.893L264.908 100.593ZM286.473 178.211V188.979L276.5 183.753L286.473 178.211ZM286.473 175.351L273.852 182.365L265.334 177.902V148.305C265.334 147.854 265.091 147.438 264.699 147.216L240.908 133.774V115.292L286.473 139.891V175.351ZM271.238 183.818L265.334 180.724V187.099L271.238 183.818ZM262.834 150.417V176.592L240.908 165.102V162.452L262.834 150.417ZM238.408 165.859V163.824L218.057 174.994V224.071L238.408 213.229V202.799C238.408 202.345 238.654 201.927 239.05 201.706L262.834 188.488V179.414L239.078 166.966C238.666 166.75 238.408 166.324 238.408 165.859ZM261.515 148.289L240.908 159.6V136.645L261.515 148.289ZM238.408 160.972V135.232L216.802 123.025L192.843 136.34L192.843 159.896L216.802 172.831L238.408 160.972ZM190.343 112.256V134.87L168.135 147.212C167.738 147.432 167.492 147.851 167.492 148.305V174.229L155.874 180.418L145.565 174.593V136.833L190.343 112.256ZM158.455 181.876L167.492 177.062V186.982L158.455 181.876ZM169.992 175.73V188.395L192.207 200.947C192.6 201.169 192.843 201.585 192.843 202.036V212.185L215.557 224.087V175L192.843 162.737V162.806C192.843 163.268 192.588 163.692 192.18 163.909L169.992 175.73ZM155.839 183.27L167.492 189.854V200.967C167.492 201.432 167.75 201.858 168.162 202.074L178.784 207.64L144.31 226.562L110.109 208.097L121.422 202.07C121.829 201.853 122.084 201.429 122.084 200.967V189.108L132.599 183.264L143.735 189.099C144.101 189.291 144.538 189.29 144.903 189.095L155.839 183.27ZM145.565 228.725L181.442 209.033L190.343 213.697L190.343 239.431L168.135 251.774C167.738 251.994 167.492 252.412 167.492 252.866V266.121L159.907 270.162L145.565 262.059V228.725ZM184.072 207.589L190.343 210.875V204.148L184.072 207.589ZM181.414 206.196L189.023 202.02L169.992 191.266V200.211L181.414 206.196ZM192.843 238.042L192.843 215.007L214.176 226.186L192.843 238.042ZM238.408 239.794L216.802 227.586L192.843 240.902V254.698C192.843 255.16 192.588 255.584 192.18 255.801L184.443 259.923L216.802 277.393L247.091 260.767L239.078 256.568C238.666 256.353 238.408 255.926 238.408 255.461V239.794ZM171.344 252.85L190.343 242.291V253.948L181.803 258.497L171.344 252.85ZM169.992 254.962L179.154 259.908L169.992 264.789V254.962ZM162.487 271.62L167.492 268.954V274.448L162.487 271.62ZM169.992 267.622V275.86L192.207 288.413C192.6 288.634 192.843 289.05 192.843 289.501L192.843 316.746L215.557 328.649V279.562L181.795 261.334L169.992 267.622ZM159.871 273.013L167.492 277.319V301.304L144.31 314.027L122.084 302.028L122.084 276.573L128.5 273.008L143.735 280.992C144.101 281.183 144.538 281.182 144.903 280.988L159.871 273.013ZM169.992 278.732V299.931L189.023 289.485L169.992 278.732ZM145.565 316.19L167.492 304.155V305.529C167.492 305.994 167.75 306.42 168.162 306.636L190.343 318.259V341.413L171.448 351.479L145.565 336.854V316.19ZM190.343 291.613V315.436L169.992 304.772V302.783L190.343 291.613ZM192.843 342.163V319.569L216.227 331.822C216.593 332.014 217.03 332.013 217.395 331.818L238.408 320.624V342.927C238.408 343.391 238.666 343.818 239.078 344.034L259.645 354.811L239.05 366.257C238.654 366.478 238.408 366.896 238.408 367.35V403.769L217.422 391.912C217.043 391.698 216.58 391.696 216.2 391.908L192.843 404.889L192.843 364.297C192.843 363.846 192.6 363.43 192.207 363.208L174.028 352.937L192.18 343.267C192.588 343.049 192.843 342.625 192.843 342.163ZM240.908 342.17V319.292L264.672 306.632C265.074 306.418 265.327 306.002 265.334 305.547L286.473 316.959V339.901L262.259 353.359L240.908 342.17ZM262.834 301.356V278.814L242.259 290.248L262.834 301.356ZM239.05 289.172L262.834 275.954V269.017L249.749 262.16L218.057 279.556V328.633L238.408 317.791V290.264C238.408 289.81 238.654 289.392 239.05 289.172ZM269.258 272.383L265.334 274.564V270.327L269.258 272.383ZM271.872 270.93L265.334 267.504V252.866C265.334 252.415 265.091 252 264.699 251.778L240.908 238.335V214.73L250.078 209.845L286.473 229.494V262.816L271.872 270.93ZM240.908 254.705V241.207L261.515 252.85L249.722 259.324L240.908 254.705ZM252.38 260.716L262.834 254.978V266.194L252.38 260.716ZM219.405 226.186L238.408 236.923V216.062L219.405 226.186ZM247.437 208.419L240.908 211.898V204.894L247.437 208.419ZM250.086 207.008L242.259 202.783L262.834 191.348V200.217L250.086 207.008ZM286.473 265.676V278.581L274.521 272.318L286.473 265.676ZM262.834 304.197L240.908 292.36V316.459L262.834 304.778V304.197ZM286.473 342.762V366.047L264.908 354.747L286.473 342.762ZM95.0001 364.297V403.68L74.1718 391.912C73.7929 391.698 73.33 391.696 72.9496 391.908L49.5925 404.889V367.297C49.5925 366.846 49.3499 366.43 48.9574 366.208L28.9565 354.907L48.9302 344.267C49.3379 344.049 49.5925 343.625 49.5925 343.163V319.569L72.9768 331.822C73.3428 332.014 73.78 332.013 74.1447 331.818L95.0001 320.708V342.163C95.0001 342.628 95.2581 343.055 95.6699 343.271L114.117 352.937L95.6429 363.204C95.2461 363.425 95.0001 363.843 95.0001 364.297ZM23.7604 354.843L2.3153 342.726V366.268L23.7604 354.843ZM2.3153 339.854L26.3762 353.449L47.0925 342.413V318.259L24.9116 306.636C24.4998 306.42 24.2417 305.994 24.2417 305.529V305.155L2.3153 317.19V339.854ZM72.3069 328.649L49.5925 316.746V290.501C49.5925 290.05 49.3499 289.634 48.9574 289.413L26.7417 276.86V268.622L39.4769 261.837L72.3069 279.562V328.649ZM24.2417 269.954V275.448L19.2368 272.62L24.2417 269.954ZM24.2417 267.121L16.6565 271.162L2.3153 263.059V229.725L39.1237 209.521L47.0925 213.697V239.431L24.8845 251.774C24.4878 251.994 24.2417 252.412 24.2417 252.866V267.121ZM14.0407 272.555L2.3153 265.93V278.802L14.0407 272.555ZM11.8303 183.841L2.3153 178.465V188.91L11.8303 183.841ZM2.3153 175.593L14.446 182.447L24.2417 177.229V148.305C24.2417 147.851 24.4878 147.432 24.8845 147.212L47.0925 134.87V115.255L2.3153 139.833V175.593ZM24.2417 187.982L17.0264 183.905L24.2417 180.061V187.982ZM26.7417 189.395V178.73L48.9302 166.909C49.3379 166.692 49.5925 166.268 49.5925 165.806V162.737L72.3069 175V224.087L49.5925 212.185V203.035C49.5925 202.585 49.3499 202.169 48.9574 201.947L26.7417 189.395ZM73.552 172.831L49.5925 159.896V136.34L73.5519 123.025L95.0001 135.143V161.059L73.552 172.831ZM47.0925 158.546V137.73L28.0935 148.289L47.0925 158.546ZM47.0925 161.387L26.7417 150.4V175.897L47.0925 165.055V161.387ZM72.9497 120.499L49.5925 133.48V113.143C49.5925 112.693 49.3499 112.277 48.9574 112.055L29.289 100.942L48.9302 90.4783C49.3379 90.2611 49.5925 89.8369 49.5925 89.3751V65.4153L72.9768 77.6688C73.3428 77.8605 73.78 77.8591 74.1447 77.6648L95.0001 66.5543V88.0099C95.0001 88.4749 95.2581 88.9014 95.6699 89.1172L114.117 98.7836L95.6429 109.051C95.2461 109.271 95.0001 109.69 95.0001 110.143V132.272L74.1718 120.504C73.793 120.289 73.3301 120.288 72.9497 120.499ZM47.0925 88.6247L26.7086 99.4839L2.3153 85.7011V63.4021L24.2417 51.3671V51.3752C24.2417 51.8401 24.4998 52.2666 24.9116 52.4824L47.0925 64.1053V88.6247ZM24.0929 100.877L2.3153 88.5726V112.479L24.0929 100.877ZM13.5539 18.492L2.3153 12.1419V24.4792L13.5539 18.492ZM24.2417 21.6594L18.75 18.5564L24.2417 15.6308V21.6594ZM26.7417 23.072V14.2989L39.3191 7.5985L72.3069 25.4081V74.4953L49.5925 62.5929V36.7127C49.5925 36.2619 49.3499 35.8461 48.9574 35.6244L26.7417 23.072ZM36.6783 6.17274L26.7417 0.808189V11.4663L36.6783 6.17274ZM47.0925 38.8247V61.2829L26.7417 50.619V49.9949L47.0925 38.8247ZM45.7735 36.6969L26.7417 47.143V25.9434L45.7735 36.6969ZM97.5001 87.2537V65.2224L121.422 52.4784C121.829 52.2613 122.084 51.8371 122.084 51.3752V50.7155L143.065 62.0428V82.6953L116.731 97.3308L97.5001 87.2537ZM119.584 23.8095L119.584 46.5247L98.8519 35.3317L119.584 23.8095ZM119.584 49.3658L97.5001 37.443V62.3898L119.584 50.6248V49.3658ZM145.565 82.7012V62.037L167.492 50.0019V51.3752C167.492 51.8401 167.75 52.2666 168.162 52.4824L190.343 64.1052V87.2596L171.448 97.3255L145.565 82.7012ZM169.992 50.619V48.6297L190.343 37.4596V61.2828L169.992 50.619ZM169.992 45.7778L189.023 35.3317L169.992 24.5784V45.7778ZM145.565 85.5727L168.832 98.719L145.565 111.114V85.5727ZM143.065 85.5555V111.13L119.38 98.7189L143.065 85.5555ZM98.8519 110.128L116.766 100.172L143.735 114.304C144.101 114.495 144.538 114.494 144.903 114.3L171.412 100.177L189.023 110.128L144.31 134.67L98.8519 110.128ZM97.5001 112.239L143.065 136.839V174.587L132.564 180.423L122.084 174.932L122.084 148.305C122.084 147.854 121.842 147.438 121.449 147.216L97.5001 133.685V112.239ZM135.213 181.811L143.065 177.448V185.926L135.213 181.811ZM153.258 181.812L145.565 185.91V177.465L153.258 181.812ZM122.084 177.754L129.95 181.876L122.084 186.248V177.754ZM119.584 176.444V187.637L95.6429 200.943C95.2461 201.163 95.0001 201.582 95.0001 202.036V213.313L74.8069 224.071V174.994L95.379 163.702C95.4641 163.785 95.5617 163.856 95.6699 163.913L119.584 176.444ZM76.155 226.186L95.0001 216.146V236.834L76.155 226.186ZM97.5001 214.814V238.246L121.449 251.778C121.842 252 122.084 252.415 122.084 252.866V266.824L128.465 270.167L143.065 262.053V228.731L107.46 209.508L97.5001 214.814ZM73.5519 227.586L95.0001 239.705V254.698C95.0001 255.163 95.2581 255.589 95.6699 255.805L104.475 260.419L73.552 277.393L42.1257 260.426L48.9302 256.801C49.3379 256.584 49.5925 256.16 49.5925 255.698V240.902L73.5519 227.586ZM74.8069 279.556L107.134 261.812L119.584 268.336V275.103L95.6429 288.408C95.2461 288.629 95.0001 289.047 95.0001 289.501V317.875L74.8069 328.633V279.556ZM109.764 260.368L119.584 265.514V254.978L109.764 260.368ZM107.106 258.975L118.265 252.85L97.5001 241.118V253.942L107.106 258.975ZM122.084 273.713V269.646L125.851 271.62L122.084 273.713ZM98.8519 289.485L119.584 277.963L119.584 300.678L98.8519 289.485ZM97.5001 291.596L119.584 303.519V304.778L97.5001 316.543V291.596ZM97.5001 341.407V319.376L121.422 306.632C121.829 306.415 122.084 305.99 122.084 305.529V304.869L143.065 316.196V336.849L116.731 351.484L97.5001 341.407ZM119.38 352.872L143.065 339.709V365.284L119.38 352.872ZM168.832 352.872L145.565 365.268V339.726L168.832 352.872ZM144.903 368.453L171.413 354.33L189.023 364.281L144.31 388.823L98.8519 364.281L116.766 354.325L143.735 368.457C144.101 368.649 144.538 368.647 144.903 368.453ZM47.0925 254.947L39.4848 259L28.0935 252.85L47.0925 242.291V254.947ZM36.8361 260.411L26.7417 254.962V265.789L36.8361 260.411ZM70.9255 226.186L49.5925 238.042V215.007L70.9255 226.186ZM143.065 277.818L131.114 271.555L143.065 264.913V277.818ZM145.565 277.802V264.93L157.291 271.555L145.565 277.802ZM97.5001 211.982L104.819 208.082L97.5001 204.131V211.982ZM119.584 200.217L107.468 206.671L98.8519 202.02L119.584 190.497V200.217ZM119.584 173.622L97.9554 162.288L119.584 150.417V173.622ZM97.5001 159.686L118.265 148.289L97.5001 136.556V159.686ZM47.0925 205.147V210.875L41.7544 208.077L47.0925 205.147ZM45.7735 203.02L39.0963 206.685L26.7417 200.211V192.266L45.7735 203.02ZM26.7417 279.732V300.931L45.7735 290.485L26.7417 279.732ZM26.7417 304.772V303.783L47.0925 292.613V315.436L26.7417 304.772ZM190.343 137.73V158.546L171.344 148.289L190.343 137.73ZM190.343 161.387L169.992 150.4V172.897L190.343 162.055V161.387ZM286.473 11.5227L274.459 18.1997L286.473 24.4952V11.5227ZM154.404 15.7706L145.565 10.7767V20.4792L154.404 15.7706ZM134.049 15.7706L143.065 10.7596V20.4952L134.049 15.7706Z" fill="#C4C4C4"/>
</svg>
