<svg width="20" height="20" viewBox="0 0 20 20" fill="none" xmlns="http://www.w3.org/2000/svg">
<path d="M17.8929 0H2.10714C0.945 0 0 0.945 0 2.10714V17.8929C0 19.055 0.945 20 2.10714 20H17.8929C19.055 20 20 19.055 20 17.8929V2.10714C20 0.945 19.055 0 17.8929 0ZM2.10714 1.42857H17.8929C18.2671 1.42857 18.5714 1.73286 18.5714 2.10714V12.6793L15.445 9.55286C14.6221 8.72929 13.2836 8.73071 12.4614 9.55286L9.07286 12.9429C8.81071 13.2064 8.37929 13.2064 8.11429 12.9414L6.12929 10.955C5.30643 10.1336 3.96786 10.1343 3.14571 10.9557L1.42857 12.6729V2.10714C1.42857 1.73286 1.73286 1.42857 2.10714 1.42857ZM17.8929 18.5714H2.10714C1.73286 18.5714 1.42857 18.2671 1.42857 17.8929V14.6936L4.15571 11.9664C4.42071 11.7014 4.85286 11.7014 5.11929 11.9664L7.10429 13.9521C7.92429 14.7721 9.26143 14.7729 10.0829 13.9543L13.4714 10.5636C13.7371 10.2986 14.1707 10.2986 14.435 10.5636L18.5714 14.6993V17.8929C18.5714 18.2671 18.2671 18.5714 17.8929 18.5714Z" fill="black"/>
<path d="M14.6428 7.92862C16.06 7.92862 17.2143 6.77505 17.2143 5.3572C17.2143 3.93934 16.0607 2.78577 14.6428 2.78577C13.225 2.78577 12.0714 3.93934 12.0714 5.3572C12.0714 6.77505 13.2257 7.92862 14.6428 7.92862ZM14.6428 4.21434C15.2728 4.21434 15.7857 4.7272 15.7857 5.3572C15.7857 5.9872 15.2728 6.50005 14.6428 6.50005C14.0128 6.50005 13.5 5.9872 13.5 5.3572C13.5 4.7272 14.0128 4.21434 14.6428 4.21434Z" fill="black"/>
</svg>
