<svg width="25" height="22" viewBox="0 0 25 22" fill="none" xmlns="http://www.w3.org/2000/svg">
<path d="M23.7192 9.19679L23.7192 9.19676L23.7162 9.19448L12.8234 1.04842L12.8236 1.04819L12.8159 1.04316C12.4238 0.785613 11.9599 0.785613 11.5677 1.04316L11.5674 1.04271L11.5573 1.0506L1.12248 9.25157C0.970407 9.3649 0.884002 9.54463 0.858358 9.72145C0.832615 9.89897 0.864784 10.0967 0.980133 10.2482L0.986603 10.2567L0.994213 10.2642C1.1183 10.3864 1.32563 10.532 1.55572 10.532C1.70535 10.532 1.84704 10.4621 1.95151 10.4105C1.9558 10.4084 1.96002 10.4063 1.96418 10.4042L1.97811 10.3974L1.99034 10.3878L12.1655 2.42469L22.8523 10.3899L22.8528 10.3903C22.9983 10.4978 23.1923 10.5487 23.3766 10.5314C23.5634 10.5138 23.7535 10.4241 23.8685 10.2353C23.9673 10.0731 24.0217 9.88654 24.0037 9.70045C23.9854 9.51102 23.8929 9.33369 23.7192 9.19679ZM20.6397 19.6517V10.3258C20.6397 9.96983 20.3519 9.61405 19.9194 9.61405C19.7149 9.61405 19.5325 9.68179 19.4006 9.81168C19.2686 9.94176 19.1991 10.1225 19.1991 10.3258V19.6517C19.1991 19.6583 19.1942 19.678 19.1725 19.6993C19.151 19.7205 19.13 19.7264 19.121 19.7264H15.471C15.462 19.7264 15.441 19.7205 15.4195 19.6993C15.3978 19.678 15.3929 19.6583 15.3929 19.6517V15.6629C15.3929 14.8476 14.6963 14.1646 13.8742 14.1646H11.2508C10.4287 14.1646 9.7321 14.8476 9.7321 15.6629V19.6517C9.7321 19.6583 9.72718 19.678 9.70554 19.6993C9.68404 19.7205 9.66301 19.7264 9.65398 19.7264H5.89C5.88096 19.7264 5.85993 19.7205 5.83843 19.6993C5.81679 19.678 5.81188 19.6583 5.81188 19.6517V10.3258C5.81188 10.1225 5.74237 9.94176 5.61031 9.81168C5.47846 9.68179 5.29608 9.61405 5.09158 9.61405C4.88707 9.61405 4.7047 9.68179 4.57284 9.81168C4.44079 9.94176 4.37128 10.1225 4.37128 10.3258V19.6517C4.37128 20.467 5.0679 21.15 5.89 21.15H9.65398C10.4761 21.15 11.1727 20.467 11.1727 19.6517V15.6629C11.1727 15.6563 11.1776 15.6366 11.1992 15.6153C11.2207 15.5941 11.2418 15.5882 11.2508 15.5882H13.8742C13.8832 15.5882 13.9043 15.5941 13.9258 15.6153C13.9474 15.6366 13.9523 15.6563 13.9523 15.6629V19.6517C13.9523 20.467 14.6489 21.15 15.471 21.15H19.121C19.9431 21.15 20.6397 20.467 20.6397 19.6517Z" fill="black" stroke="black" stroke-width="0.3"/>
</svg>
