<svg width="20" height="20" viewBox="0 0 20 20" fill="none" xmlns="http://www.w3.org/2000/svg">
<path d="M13.2319 10.9609C15.057 9.89324 16.2738 8.0427 16.2738 5.90747C16.2738 2.63345 13.4601 0 9.96198 0C6.46388 0 3.65019 2.63345 3.65019 5.90747C3.65019 8.0427 4.86692 9.89324 6.69202 10.9609C3.04183 12.1708 0.304183 15.3737 0 19.2171C0 19.4306 0.0760458 19.573 0.228137 19.7865C0.380228 20 0.608365 20 0.760456 20H19.2395C19.4677 20 19.6198 19.9288 19.7719 19.7865C19.924 19.6441 20 19.4306 20 19.2171C19.6958 15.3737 16.9582 12.1708 13.2319 10.9609ZM5.1711 5.90747C5.1711 3.41637 7.30038 1.42349 9.96198 1.42349C12.6236 1.42349 14.7529 3.41637 14.7529 5.90747C14.7529 8.39858 12.6236 10.3915 9.96198 10.3915C7.30038 10.3915 5.1711 8.39858 5.1711 5.90747ZM1.59696 18.5053C2.28137 14.7331 5.77947 11.8149 9.96198 11.8149C14.1445 11.8149 17.7186 14.6619 18.327 18.5053H1.59696Z" fill="black"/>
</svg>
