<svg width="20" height="25" viewBox="0 0 20 25" fill="none" xmlns="http://www.w3.org/2000/svg">
<path d="M20 9.49504C20 4.22961 15.5455 0 10 0C4.45455 0 0 4.22961 0 9.49504C0 12.8615 1.81818 15.71 4.54545 17.4363V23.5052C4.54545 24.0231 4.90909 24.4547 5.36364 24.7137C5.81818 24.8863 6.45455 24.8 6.81818 24.4547L10 21.6925L13.1818 24.4547C13.4545 24.7137 13.7273 24.8 14.0909 24.8C14.2727 24.8 14.4545 24.8 14.6364 24.7137C15.0909 24.541 15.4545 24.0231 15.4545 23.5052V17.4363C18.1818 15.71 20 12.8615 20 9.49504ZM13.6364 22.4694L10.9091 20.0525C10.3636 19.6209 9.63636 19.6209 9.09091 20.0525L6.36364 22.4694V18.2995C7.45455 18.7311 8.72727 18.9901 10 18.9901C11.2727 18.9901 12.5455 18.7311 13.6364 18.2995V22.4694ZM10 17.2637C5.45455 17.2637 1.81818 13.811 1.81818 9.49504C1.81818 5.17911 5.45455 1.72637 10 1.72637C14.5455 1.72637 18.1818 5.17911 18.1818 9.49504C18.1818 13.811 14.5455 17.2637 10 17.2637Z" fill="black"/>
<path d="M7.46313 15.0698L10.0003 13.6541L12.53 15.0284C12.6771 15.1271 12.8595 15.1703 13.0313 15.1703C13.2499 15.1703 13.4309 15.1218 13.6425 14.9894L13.6494 14.9851L13.6559 14.9803C13.9673 14.7484 14.1448 14.3342 14.0577 13.9172L13.5593 10.9848L15.5876 8.90735C15.9033 8.62137 15.9839 8.19903 15.8561 7.79921L15.8562 7.79917L15.8538 7.79242C15.7285 7.44413 15.4265 7.11002 15.006 7.05988L12.1862 6.65057L10.9391 3.97595L10.9391 3.97595L10.9381 3.97398C10.7622 3.60724 10.4056 3.37141 9.99999 3.37141C9.59437 3.37141 9.23774 3.60724 9.06184 3.97398L9.06183 3.97398L9.06091 3.97595L7.81376 6.65057L4.99403 7.05988C4.58328 7.10868 4.2741 7.39588 4.145 7.79585C4.01454 8.16283 4.09816 8.62227 4.41232 8.90731L6.44071 10.9848L5.94223 13.9172C5.85581 14.3311 6.03002 14.7421 6.33697 14.9749C6.666 15.2633 7.11749 15.25 7.45813 15.0725L7.45817 15.0725L7.46313 15.0698ZM8.81181 7.15067L10.0015 4.59925L11.2275 7.11995L11.2273 7.12005L11.232 7.12861C11.397 7.42965 11.6606 7.67101 12.0296 7.71966L14.7785 8.1187L12.7853 10.1602C12.5075 10.4063 12.4312 10.7805 12.4718 11.1193L12.4716 11.1193L12.4732 11.129L12.9597 13.9907L10.5013 12.6551C10.3541 12.5564 10.1717 12.5131 9.99999 12.5131C9.85045 12.5131 9.63865 12.5471 9.50478 12.709L7.0764 14.0283L7.56285 11.1666L7.56309 11.1666L7.56426 11.1569C7.60489 10.8181 7.52861 10.4439 7.2508 10.1978L5.25756 8.15632L8.00651 7.75728C8.36061 7.7106 8.67417 7.48065 8.81181 7.15067ZM7.80183 6.6633C7.8017 6.66341 7.80163 6.66346 7.80162 6.66346C7.80162 6.66346 7.80171 6.66339 7.80188 6.66327C7.80186 6.66328 7.80185 6.66329 7.80183 6.6633Z" fill="black" stroke="black" stroke-width="0.4"/>
</svg>
