<svg width="100" height="94" viewBox="0 0 100 94" fill="none" xmlns="http://www.w3.org/2000/svg">
<path fill-rule="evenodd" clip-rule="evenodd" d="M54.8229 0.378792C54.9553 0.144733 55.2035 0 55.4726 0H75.8841C76.1598 0 76.4131 0.151891 76.5427 0.395009L86.3047 18.7016C86.4207 18.9191 86.4216 19.1799 86.3071 19.3982L82.0786 27.4599H89.4917C89.7675 27.4599 90.0207 27.6118 90.1504 27.8549L99.9124 46.1615C100.028 46.3791 100.029 46.6398 99.9147 46.8581L90.1527 65.4698C90.0239 65.7154 89.7693 65.8693 89.4917 65.8693H80.6623L85.1215 74.2316C85.2374 74.4491 85.2383 74.7099 85.1238 74.9282L75.3618 93.5399C75.233 93.7855 74.9784 93.9394 74.7008 93.9394H54.2894C54.0184 93.9394 53.7687 93.7927 53.6371 93.556L49.8932 86.826L46.3717 93.5399C46.2428 93.7855 45.9882 93.9394 45.7107 93.9394H25.2992C25.0282 93.9394 24.7785 93.7927 24.6469 93.556L14.2933 74.9443C14.1671 74.7175 14.168 74.4414 14.2958 74.2154L19.0161 65.8693H11.0999C10.8289 65.8693 10.5792 65.7226 10.4476 65.486L0.0939697 46.8743C-0.0322327 46.6474 -0.0312586 46.3713 0.0965413 46.1453L10.4502 27.8387C10.5826 27.6047 10.8308 27.4599 11.0999 27.4599H19.0648L14.5891 19.4143C14.4629 19.1875 14.4638 18.9114 14.5916 18.6854L24.9453 0.378792C25.0777 0.144733 25.3259 0 25.595 0H46.0065C46.2822 0 46.5355 0.151891 46.6651 0.395009L50.6196 7.8108L54.8229 0.378792ZM49.7491 9.34983L45.5585 1.4911H26.8559L36.0945 18.3066H44.6835L49.7491 9.34983ZM46.3978 18.3066L50.5811 10.91L54.5253 18.3066H46.3978ZM44.6799 19.7977H36.098L31.8988 27.5683C32.0113 27.6365 32.1058 27.7346 32.17 27.8549L37.003 36.9183H45.555L49.7523 28.9159L44.6799 19.7977ZM50.581 27.336L46.3875 19.7977H54.5349L50.581 27.336ZM51.4483 28.895L56.4295 19.3982C56.544 19.1799 56.5431 18.9191 56.4271 18.7016L51.4515 9.37093L55.4632 2.27782L64.6808 19.0551L55.4631 36.1121L51.4483 28.895ZM50.6196 30.4749L46.6675 38.0099C46.5387 38.2555 46.284 38.4094 46.0065 38.4094H37.7982L41.932 46.1615C42.048 46.3791 42.0489 46.6398 41.9344 46.8581L37.3859 55.53H45.7107C45.9864 55.53 46.2397 55.6819 46.3693 55.925L49.8931 62.5332L53.6396 55.9088C53.772 55.6747 54.0203 55.53 54.2894 55.53H62.8895L58.0743 46.8743C57.9481 46.6474 57.9491 46.3713 58.0769 46.1453L62.4521 38.4094H55.4726C55.2016 38.4094 54.9519 38.2627 54.8203 38.026L50.6196 30.4749ZM35.3119 36.9183L31.1072 29.0331L26.846 36.9183H35.3119ZM30.2612 27.4599L34.8032 19.0551L25.5856 2.27782L16.0968 19.0552L20.7724 27.4599H30.2612ZM21.6019 28.951H29.4554L25.5855 36.1121L21.6019 28.951ZM19.8943 28.951L24.9427 38.026C25.0743 38.2627 25.324 38.4094 25.595 38.4094H36.107L40.0302 45.7665H21.5994L12.3608 28.951H19.8943ZM84.4125 19.7977L80.3936 27.4599H69.0803C68.8112 27.4599 68.5629 27.6047 68.4306 27.8387L63.2954 36.9183H56.7236L65.9756 19.7977H84.4125ZM59.5821 46.5151L64.1664 38.4094H73.8351L78.2884 46.515L73.4167 55.53H64.5971L59.5821 46.5151ZM65.0097 36.9183H73.0159L69.0708 29.7378L65.0097 36.9183ZM70.3412 28.951L74.7185 36.9183H75.4326L79.6115 28.951H70.3412ZM75.8841 38.4094H75.5377L79.5798 45.7665H98.0106L89.0437 28.951H81.2965L76.5451 38.0099C76.4163 38.2555 76.1616 38.4094 75.8841 38.4094ZM65.9721 18.3066H84.4029L75.4361 1.4911H56.7335L65.9721 18.3066ZM63.719 57.0211H55.5503L64.7889 73.8366H83.2197L78.9712 65.8693H69.0803C68.8093 65.8693 68.5596 65.7226 68.428 65.486L63.719 57.0211ZM79.8672 64.3782H89.0403L98.0202 47.2576H79.5833L75.0624 55.6234C75.1863 55.6919 75.2904 55.7955 75.3595 55.925L79.8672 64.3782ZM74.2798 57.0716L78.176 64.3782H70.3313L74.2798 57.0716ZM72.6109 57.0211L69.0708 63.572L65.4266 57.0211H72.6109ZM54.2799 91.6421L50.7218 85.2461L56.1337 74.9282C56.2482 74.7099 56.2473 74.4491 56.1313 74.2316L50.725 64.0933L54.2799 57.8078L63.4975 74.5851L54.2799 91.6421ZM45.2627 57.0211L49.0227 64.0722L43.5002 73.8366H35.7987L31.4214 65.8693H31.5114C31.7889 65.8693 32.0436 65.7154 32.1724 65.4698L36.6038 57.0211H45.2627ZM49.8546 65.6324L45.2145 73.8366H54.2295L49.8546 65.6324ZM54.2391 75.3277H45.2043L49.8545 83.687L54.2391 75.3277ZM49.0259 85.2669L43.4967 75.3277H35.8022L26.5502 92.4483H45.2592L49.0259 85.2669ZM35.7009 55.53L40.0398 47.2576H21.6029L12.3509 64.3782H19.8594L24.6495 55.9088C24.7818 55.6747 25.0301 55.53 25.2992 55.53H35.7009ZM20.7304 65.8693L15.801 74.5852L25.2897 91.6421L34.5073 74.5851L29.7188 65.8693H20.7304ZM28.8996 64.3782H21.5737L25.2897 57.8078L28.8996 64.3782ZM30.6022 64.3782L26.5601 57.0211H34.9188L31.0599 64.3782H30.6022ZM20.3081 46.515L11.0905 29.7378L1.60172 46.5151L11.0904 63.572L20.3081 46.515ZM55.5403 92.4483H74.2494L83.2293 75.3277H64.7924L55.5403 92.4483Z" fill="#282828"/>
</svg>
