<?xml version="1.0" encoding="UTF-8"?><svg xmlns="http://www.w3.org/2000/svg" xmlns:xlink="http://www.w3.org/1999/xlink" contentScriptType="text/ecmascript" width="375" zoomAndPan="magnify" contentStyleType="text/css" viewBox="0 0 375 374.999991" height="374.999991" preserveAspectRatio="xMidYMid meet" version="1.0"><defs><clipPath id="clip-0"><path d="M 0 9.644531 L 375 9.644531 L 375 350.894531 L 0 350.894531 Z M 0 9.644531 " clip-rule="nonzero"/></clipPath></defs><g clip-path="url(#clip-0)"><path fill="rgb(100%, 100%, 100%)" d="M 334.078125 245.683594 L 298.894531 245.683594 L 281.042969 213.367188 L 298.746094 181.421875 L 369.707031 181.421875 Z M 313.25 279.339844 L 242.363281 279.339844 L 206.808594 215.078125 L 239.980469 215.078125 L 258.429688 248.4375 L 258.578125 248.660156 L 258.726562 248.808594 L 258.949219 248.957031 L 259.101562 249.109375 L 259.398438 249.257812 L 296.738281 249.257812 Z M 277.695312 347.246094 L 206.808594 347.246094 L 242.363281 283.0625 L 313.25 283.0625 Z M 210.675781 282.019531 L 210.824219 281.71875 L 210.824219 281.570312 C 210.867188 281.425781 210.890625 281.277344 210.898438 281.125 C 210.890625 280.976562 210.867188 280.824219 210.824219 280.679688 L 210.824219 280.53125 L 210.675781 280.230469 L 189.625 242.257812 L 203.609375 217.015625 L 239.089844 281.125 L 203.609375 345.234375 L 189.625 319.996094 Z M 170.359375 347.246094 L 99.398438 347.246094 L 134.953125 283.0625 L 164.929688 283.0625 L 185.386719 320.066406 Z M 78.273438 249.40625 L 114.054688 249.40625 L 131.753906 281.199219 L 96.273438 345.3125 L 60.792969 281.199219 Z M 42.941406 245.683594 L 78.496094 181.421875 L 149.457031 181.421875 L 132.945312 211.355469 L 95.605469 211.355469 L 95.304688 211.507812 L 95.15625 211.65625 L 94.933594 211.804688 L 94.785156 211.953125 L 94.636719 212.175781 L 76.191406 245.535156 L 43.015625 245.535156 Z M 39.816406 115.453125 L 75.296875 179.5625 L 39.816406 243.671875 L 4.410156 179.5625 Z M 94.636719 148.289062 L 94.785156 148.511719 L 94.933594 148.660156 L 95.15625 148.808594 L 95.304688 149.03125 L 95.605469 149.179688 L 133.765625 149.179688 L 149.53125 177.628906 L 78.570312 177.628906 L 43.015625 113.515625 L 75.375 113.515625 Z M 60.792969 79.414062 L 96.273438 15.304688 L 131.753906 79.414062 L 115.019531 109.71875 L 77.53125 109.71875 Z M 170.359375 13.292969 L 188.136719 45.386719 L 170.359375 77.550781 L 134.953125 77.550781 L 99.398438 13.367188 L 170.359375 13.367188 Z M 209.039062 15.304688 L 244.519531 79.414062 L 209.039062 143.523438 L 192.375 113.367188 L 210.675781 80.304688 L 210.824219 80.007812 L 210.824219 79.859375 C 210.867188 79.714844 210.890625 79.5625 210.898438 79.414062 C 210.890625 79.261719 210.867188 79.113281 210.824219 78.96875 L 210.824219 78.816406 L 210.675781 78.519531 L 192.375 45.460938 Z M 318.679688 77.550781 L 247.792969 77.550781 L 212.238281 13.367188 L 283.199219 13.367188 Z M 260.066406 109.792969 L 259.398438 109.792969 L 259.101562 109.941406 L 258.949219 110.089844 L 258.726562 110.242188 L 258.578125 110.390625 L 258.429688 110.613281 L 239.164062 145.457031 L 212.238281 145.457031 L 247.792969 81.273438 L 318.753906 81.273438 L 302.988281 109.71875 L 260.066406 109.71875 Z M 278.882812 217.164062 L 294.652344 245.683594 L 263.191406 245.683594 Z M 263.117188 113.441406 L 300.828125 113.441406 L 283.125 145.535156 L 280.890625 145.535156 Z M 259.992188 115.453125 L 276.652344 145.535156 L 243.402344 145.535156 Z M 224.511719 179.5625 L 241.25 149.257812 L 278.660156 149.257812 L 295.472656 179.5625 L 277.917969 211.355469 L 242.140625 211.355469 Z M 174.601562 77.550781 L 190.21875 49.257812 L 205.839844 77.550781 Z M 205.917969 81.273438 L 190.296875 109.570312 L 174.675781 81.273438 L 205.988281 81.273438 Z M 117.695312 112.546875 L 134.953125 81.273438 L 170.359375 81.273438 L 188.136719 113.367188 L 170.359375 145.457031 L 135.921875 145.457031 Z M 115.539062 116.417969 L 131.679688 145.609375 L 99.398438 145.609375 Z M 79.613281 113.515625 L 112.863281 113.515625 L 96.199219 143.597656 Z M 99.398438 215.078125 L 130.863281 215.078125 L 115.09375 243.523438 Z M 96.273438 217.089844 L 112.117188 245.683594 L 80.429688 245.683594 Z M 164.929688 279.339844 L 134.953125 279.339844 L 117.25 247.394531 L 135.101562 215.078125 L 170.285156 215.078125 L 185.308594 242.257812 Z M 205.917969 283.0625 L 187.542969 316.195312 L 169.167969 283.0625 Z M 169.167969 279.339844 L 187.542969 246.128906 L 205.917969 279.339844 Z M 203.683594 211.355469 L 203.011719 211.355469 L 202.71875 211.507812 L 202.570312 211.65625 L 202.34375 211.804688 L 202.195312 211.953125 L 202.046875 212.175781 L 187.542969 238.460938 L 173.113281 212.324219 C 172.785156 211.726562 172.15625 211.355469 171.476562 211.355469 L 137.261719 211.355469 L 154.367188 180.453125 L 154.515625 180.15625 L 154.515625 180.007812 C 154.558594 179.863281 154.582031 179.714844 154.59375 179.5625 C 154.582031 179.410156 154.558594 179.261719 154.515625 179.117188 L 154.515625 178.964844 L 154.367188 178.667969 L 138.078125 149.257812 L 171.550781 149.257812 C 172.230469 149.261719 172.859375 148.886719 173.1875 148.289062 L 190.367188 117.238281 L 207.402344 148.289062 L 207.550781 148.511719 L 207.699219 148.660156 L 207.925781 148.808594 L 208.070312 148.960938 L 208.367188 149.109375 L 237.007812 149.109375 L 220.71875 178.519531 C 220.414062 179.074219 220.414062 179.75 220.71875 180.304688 L 237.824219 211.207031 L 203.609375 211.207031 Z M 244.222656 215.078125 L 275.910156 215.078125 L 260.066406 243.671875 Z M 334.078125 113.515625 L 369.632812 177.777344 L 298.746094 177.777344 L 282.976562 149.332031 L 284.238281 149.332031 C 284.921875 149.332031 285.550781 148.964844 285.878906 148.363281 L 305.140625 113.515625 L 334.152344 113.515625 Z M 374.613281 180.007812 C 374.660156 179.863281 374.683594 179.714844 374.691406 179.5625 C 374.683594 179.410156 374.660156 179.261719 374.613281 179.117188 L 374.613281 178.964844 L 374.46875 178.667969 L 336.832031 110.6875 C 336.503906 110.085938 335.875 109.71875 335.191406 109.71875 L 307.226562 109.71875 L 323.515625 80.304688 L 323.664062 80.007812 L 323.664062 79.859375 C 323.707031 79.714844 323.730469 79.5625 323.738281 79.414062 C 323.730469 79.261719 323.707031 79.113281 323.664062 78.96875 L 323.664062 78.816406 L 323.515625 78.519531 L 285.878906 10.613281 C 285.550781 10.015625 284.921875 9.640625 284.238281 9.644531 L 208.367188 9.644531 L 208.070312 9.792969 L 207.925781 9.941406 L 207.699219 10.09375 L 207.550781 10.242188 L 207.402344 10.464844 L 190.296875 41.585938 L 173.113281 10.613281 C 172.785156 10.015625 172.15625 9.640625 171.476562 9.644531 L 95.605469 9.644531 L 95.304688 9.792969 L 95.15625 9.941406 L 94.933594 10.09375 L 94.785156 10.242188 L 94.636719 10.464844 L 57 78.519531 C 56.695312 79.074219 56.695312 79.75 57 80.304688 L 73.289062 109.71875 L 39.222656 109.71875 L 38.921875 109.867188 L 38.773438 110.015625 L 38.550781 110.164062 L 38.402344 110.3125 L 38.253906 110.539062 L 0.617188 178.667969 C 0.3125 179.222656 0.3125 179.898438 0.617188 180.453125 L 38.253906 248.4375 L 38.402344 248.660156 L 38.550781 248.808594 L 38.773438 248.957031 L 38.921875 249.109375 L 39.222656 249.257812 L 74.105469 249.257812 L 57 280.160156 C 56.695312 280.714844 56.695312 281.386719 57 281.945312 L 94.636719 349.925781 L 94.785156 350.152344 L 94.933594 350.300781 L 95.15625 350.449219 L 95.304688 350.59375 L 95.605469 350.746094 L 171.476562 350.746094 C 172.15625 350.746094 172.785156 350.378906 173.113281 349.777344 L 187.542969 323.941406 L 201.972656 350.074219 L 202.121094 350.300781 L 202.269531 350.449219 L 202.492188 350.59375 L 202.640625 350.746094 L 202.941406 350.894531 L 278.8125 350.894531 C 279.492188 350.898438 280.121094 350.527344 280.449219 349.925781 L 318.082031 281.945312 L 318.234375 281.648438 L 318.234375 281.570312 C 318.277344 281.425781 318.300781 281.277344 318.308594 281.125 C 318.300781 280.976562 318.277344 280.824219 318.234375 280.679688 L 318.234375 280.53125 L 318.082031 280.230469 L 300.976562 249.328125 L 335.191406 249.328125 C 335.875 249.332031 336.503906 248.960938 336.832031 248.363281 L 374.46875 180.382812 L 374.613281 180.082031 L 374.613281 179.933594 L 374.613281 180.007812 " fill-opacity="1" fill-rule="nonzero"/></g></svg>