<?xml version="1.0" encoding="UTF-8"?><svg xmlns="http://www.w3.org/2000/svg" xmlns:xlink="http://www.w3.org/1999/xlink" contentScriptType="text/ecmascript" width="375" zoomAndPan="magnify" contentStyleType="text/css" viewBox="0 0 375 374.999991" height="374.999991" preserveAspectRatio="xMidYMid meet" version="1.0"><defs><clipPath id="clip-0"><path d="M 0 28.375 L 375 28.375 L 375 369.625 L 0 369.625 Z M 0 28.375 " clip-rule="nonzero"/></clipPath></defs><g clip-path="url(#clip-0)"><path fill="rgb(6.269836%, 5.879211%, 5.099487%)" d="M 334.078125 264.414062 L 298.894531 264.414062 L 281.042969 232.097656 L 298.746094 200.152344 L 369.707031 200.152344 Z M 313.25 298.070312 L 242.363281 298.070312 L 206.808594 233.808594 L 239.980469 233.808594 L 258.429688 267.167969 L 258.578125 267.390625 L 258.726562 267.539062 L 258.949219 267.6875 L 259.101562 267.839844 L 259.398438 267.988281 L 296.738281 267.988281 Z M 277.695312 365.976562 L 206.808594 365.976562 L 242.363281 301.792969 L 313.25 301.792969 Z M 210.675781 300.75 L 210.824219 300.449219 L 210.824219 300.300781 C 210.867188 300.15625 210.890625 300.007812 210.898438 299.859375 C 210.890625 299.707031 210.867188 299.554688 210.824219 299.410156 L 210.824219 299.261719 L 210.675781 298.960938 L 189.625 260.988281 L 203.609375 235.746094 L 239.089844 299.859375 L 203.609375 363.964844 L 189.625 338.726562 Z M 170.359375 365.976562 L 99.398438 365.976562 L 134.953125 301.792969 L 164.929688 301.792969 L 185.386719 338.796875 Z M 78.273438 268.136719 L 114.054688 268.136719 L 131.753906 299.929688 L 96.273438 364.042969 L 60.792969 299.929688 Z M 42.941406 264.414062 L 78.496094 200.152344 L 149.457031 200.152344 L 132.945312 230.085938 L 95.605469 230.085938 L 95.304688 230.238281 L 95.15625 230.386719 L 94.933594 230.535156 L 94.785156 230.683594 L 94.636719 230.90625 L 76.191406 264.265625 L 43.015625 264.265625 Z M 39.816406 134.183594 L 75.296875 198.292969 L 39.816406 262.402344 L 4.410156 198.292969 Z M 94.636719 167.019531 L 94.785156 167.242188 L 94.933594 167.390625 L 95.15625 167.539062 L 95.304688 167.765625 L 95.605469 167.910156 L 133.765625 167.910156 L 149.53125 196.359375 L 78.570312 196.359375 L 43.015625 132.246094 L 75.375 132.246094 Z M 60.792969 98.144531 L 96.273438 34.035156 L 131.753906 98.144531 L 115.019531 128.449219 L 77.53125 128.449219 Z M 170.359375 32.023438 L 188.136719 64.117188 L 170.359375 96.28125 L 134.953125 96.28125 L 99.398438 32.097656 L 170.359375 32.097656 Z M 209.039062 34.035156 L 244.519531 98.144531 L 209.039062 162.253906 L 192.375 132.097656 L 210.675781 99.035156 L 210.824219 98.738281 L 210.824219 98.589844 C 210.867188 98.445312 210.890625 98.296875 210.898438 98.144531 C 210.890625 97.992188 210.867188 97.84375 210.824219 97.699219 L 210.824219 97.546875 L 210.675781 97.25 L 192.375 64.191406 Z M 318.679688 96.28125 L 247.792969 96.28125 L 212.238281 32.097656 L 283.199219 32.097656 Z M 260.066406 128.523438 L 259.398438 128.523438 L 259.101562 128.671875 L 258.949219 128.820312 L 258.726562 128.972656 L 258.578125 129.121094 L 258.429688 129.34375 L 239.164062 164.1875 L 212.238281 164.1875 L 247.792969 100.003906 L 318.753906 100.003906 L 302.988281 128.449219 L 260.066406 128.449219 Z M 278.882812 235.894531 L 294.652344 264.414062 L 263.191406 264.414062 Z M 263.117188 132.171875 L 300.828125 132.171875 L 283.125 164.265625 L 280.890625 164.265625 Z M 259.992188 134.183594 L 276.652344 164.265625 L 243.402344 164.265625 Z M 224.511719 198.292969 L 241.25 167.988281 L 278.660156 167.988281 L 295.472656 198.292969 L 277.917969 230.085938 L 242.140625 230.085938 Z M 174.601562 96.28125 L 190.21875 67.988281 L 205.839844 96.28125 Z M 205.917969 100.003906 L 190.296875 128.300781 L 174.675781 100.003906 L 205.988281 100.003906 Z M 117.695312 131.277344 L 134.953125 100.003906 L 170.359375 100.003906 L 188.136719 132.097656 L 170.359375 164.1875 L 135.921875 164.1875 Z M 115.539062 135.148438 L 131.679688 164.339844 L 99.398438 164.339844 Z M 79.613281 132.246094 L 112.863281 132.246094 L 96.199219 162.328125 Z M 99.398438 233.808594 L 130.863281 233.808594 L 115.09375 262.253906 Z M 96.273438 235.820312 L 112.117188 264.414062 L 80.429688 264.414062 Z M 164.929688 298.070312 L 134.953125 298.070312 L 117.25 266.125 L 135.101562 233.808594 L 170.285156 233.808594 L 185.308594 260.988281 Z M 205.917969 301.792969 L 187.542969 334.925781 L 169.167969 301.792969 Z M 169.167969 298.070312 L 187.542969 264.859375 L 205.917969 298.070312 Z M 203.683594 230.085938 L 203.011719 230.085938 L 202.71875 230.238281 L 202.570312 230.386719 L 202.34375 230.535156 L 202.195312 230.683594 L 202.046875 230.90625 L 187.542969 257.191406 L 173.113281 231.054688 C 172.785156 230.457031 172.15625 230.085938 171.476562 230.085938 L 137.261719 230.085938 L 154.367188 199.183594 L 154.515625 198.886719 L 154.515625 198.742188 C 154.558594 198.59375 154.582031 198.445312 154.59375 198.292969 C 154.582031 198.140625 154.558594 197.992188 154.515625 197.847656 L 154.515625 197.695312 L 154.367188 197.398438 L 138.078125 167.988281 L 171.550781 167.988281 C 172.230469 167.992188 172.859375 167.617188 173.1875 167.019531 L 190.367188 135.96875 L 207.402344 167.019531 L 207.550781 167.242188 L 207.699219 167.390625 L 207.925781 167.539062 L 208.070312 167.691406 L 208.367188 167.839844 L 237.007812 167.839844 L 220.71875 197.25 C 220.414062 197.804688 220.414062 198.480469 220.71875 199.035156 L 237.824219 229.9375 L 203.609375 229.9375 Z M 244.222656 233.808594 L 275.910156 233.808594 L 260.066406 262.402344 Z M 334.078125 132.246094 L 369.632812 196.507812 L 298.746094 196.507812 L 282.976562 168.0625 L 284.238281 168.0625 C 284.921875 168.0625 285.550781 167.695312 285.878906 167.09375 L 305.140625 132.246094 L 334.152344 132.246094 Z M 374.613281 198.742188 C 374.660156 198.59375 374.683594 198.445312 374.691406 198.292969 C 374.683594 198.140625 374.660156 197.992188 374.613281 197.847656 L 374.613281 197.695312 L 374.46875 197.398438 L 336.832031 129.417969 C 336.503906 128.816406 335.875 128.449219 335.191406 128.449219 L 307.226562 128.449219 L 323.515625 99.035156 L 323.664062 98.738281 L 323.664062 98.589844 C 323.707031 98.445312 323.730469 98.296875 323.738281 98.144531 C 323.730469 97.992188 323.707031 97.84375 323.664062 97.699219 L 323.664062 97.546875 L 323.515625 97.25 L 285.878906 29.34375 C 285.550781 28.746094 284.921875 28.371094 284.238281 28.375 L 208.367188 28.375 L 208.070312 28.523438 L 207.925781 28.671875 L 207.699219 28.824219 L 207.550781 28.972656 L 207.402344 29.195312 L 190.296875 60.316406 L 173.113281 29.34375 C 172.785156 28.746094 172.15625 28.371094 171.476562 28.375 L 95.605469 28.375 L 95.304688 28.523438 L 95.15625 28.671875 L 94.933594 28.824219 L 94.785156 28.972656 L 94.636719 29.195312 L 57 97.25 C 56.695312 97.804688 56.695312 98.480469 57 99.035156 L 73.289062 128.449219 L 39.222656 128.449219 L 38.921875 128.597656 L 38.773438 128.746094 L 38.550781 128.894531 L 38.402344 129.042969 L 38.253906 129.269531 L 0.617188 197.398438 C 0.3125 197.953125 0.3125 198.628906 0.617188 199.183594 L 38.253906 267.167969 L 38.402344 267.390625 L 38.550781 267.539062 L 38.773438 267.6875 L 38.921875 267.839844 L 39.222656 267.988281 L 74.105469 267.988281 L 57 298.890625 C 56.695312 299.445312 56.695312 300.121094 57 300.675781 L 94.636719 368.65625 L 94.785156 368.882812 L 94.933594 369.03125 L 95.15625 369.179688 L 95.304688 369.328125 L 95.605469 369.476562 L 171.476562 369.476562 C 172.15625 369.476562 172.785156 369.109375 173.113281 368.507812 L 187.542969 342.671875 L 201.972656 368.804688 L 202.121094 369.03125 L 202.269531 369.179688 L 202.492188 369.328125 L 202.640625 369.476562 L 202.941406 369.625 L 278.8125 369.625 C 279.492188 369.628906 280.121094 369.257812 280.449219 368.65625 L 318.082031 300.675781 L 318.234375 300.378906 L 318.234375 300.300781 C 318.277344 300.15625 318.300781 300.007812 318.308594 299.859375 C 318.300781 299.707031 318.277344 299.554688 318.234375 299.410156 L 318.234375 299.261719 L 318.082031 298.960938 L 300.976562 268.0625 L 335.191406 268.0625 C 335.875 268.0625 336.503906 267.691406 336.832031 267.09375 L 374.46875 199.113281 L 374.613281 198.8125 L 374.613281 198.664062 L 374.613281 198.742188 " fill-opacity="1" fill-rule="nonzero"/></g></svg>